<?xml version="1.0" encoding="utf-8"?>
<!-- Generator: Adobe Illustrator 25.0.1, SVG Export Plug-In . SVG Version: 6.00 Build 0)  -->
<svg version="1.0" id="Layer_1" xmlns="http://www.w3.org/2000/svg" xmlns:xlink="http://www.w3.org/1999/xlink" x="0px" y="0px"
	 viewBox="0 0 918.5 584.6" style="enable-background:new 0 0 918.5 584.6;" xml:space="preserve">
<style type="text/css">
	.st0{fill:#433F3F;}
	.st1{fill:#D62817;}
	.st2{fill:#EC7000;}
	.st3{fill:url(#SVGID_1_);}
	.st4{fill:none;}
</style>
<path class="st0" d="M401.9,269.6h-12.1l-21.3,74.5h23.6l18-62.9c1-2.7,0.6-5.8-1.1-8.2C407.4,270.8,404.7,269.5,401.9,269.6
	L401.9,269.6z"/>
<path class="st0" d="M418.4,252.9c-2.1,6.7-8.2,11.4-15.2,11.8c-4.8,0.2-8.8-3.4-9-8.2c-0.1-1.2,0.1-2.5,0.6-3.6
	c2.1-6.7,8.2-11.4,15.2-11.8c2.9-0.2,5.7,1.2,7.5,3.6c0.8,1.2,1.4,2.6,1.5,4C419.1,250.1,418.9,251.5,418.4,252.9z"/>
<path class="st0" d="M514.9,265.6c-4.7,0-9.3,0.9-13.6,2.6c-2.1,0.9-4,2.1-5.9,3.4l5.4-19c0.9-2.7,0.6-5.8-1.1-8.1
	c-0.8-1.1-1.9-2-3.1-2.6c-1.2-0.6-2.6-0.9-4-0.8h-11.6l-29.4,103h23l11.3-39.6c1.2-5.2,3.8-9.9,7.5-13.7c2.8-2.9,6.7-4.6,10.7-4.5
	c3.2-0.3,6.3,1.5,7.6,4.5c1.4,4.5,1.2,9.3-0.4,13.7L500.1,344h23.3l11.1-38.7c3.4-9.3,3.3-19.5-0.3-28.6
	C530.6,269.4,523,265.1,514.9,265.6L514.9,265.6z"/>
<path class="st0" d="M724.6,265.4c-10.9-0.2-21.6,2.9-30.7,8.9c-4-6-10.8-9.3-18-8.8c-4.7,0-9.3,0.9-13.6,2.6
	c-2.5,1.1-4.9,2.6-7.1,4.3c-0.6-4.2-4.4-7.2-8.6-6.9h-11.5L612.7,344h23l11.4-39.7c1.2-5.2,3.8-9.9,7.5-13.7c1.4-1.4,3-2.6,4.9-3.4
	c1.8-0.8,3.8-1.2,5.8-1.1c1.6-0.2,3.2,0.2,4.5,1c1.3,0.8,2.4,2.1,3,3.5c1.4,4.5,1.2,9.3-0.4,13.7L661.1,344h23.3l11.4-39.7
	c1.2-5.1,3.8-9.9,7.5-13.7c2.8-2.9,6.7-4.6,10.7-4.5c3.3-0.3,6.3,1.5,7.6,4.5c1.4,4.5,1.2,9.3-0.4,13.7L709.8,344h23.3l11.1-38.9
	c3.4-9.3,3.3-19.5-0.3-28.6C740.4,269.2,732.7,264.8,724.6,265.4L724.6,265.4z"/>
<path class="st0" d="M541.1,310.2l12.8-44.8h23.3l-12.8,44.8c-3.8,13.2,8.6,13.2,8.6,13.2c7.9-0.1,14.7-5.5,16.7-13.2l12.8-44.8h23
	l-12.8,44.8c-5.7,20.4-24.5,34.3-45.6,33.8C567.1,344,530.8,346.4,541.1,310.2z"/>
<path class="st0" d="M823.4,305.2c3.4-9.3,3.3-19.5-0.3-28.6c-3.6-7.3-11.2-11.6-19.2-11c-4.7-0.1-9.3,0.8-13.6,2.6
	c-2.1,0.9-4,2-5.9,3.4l5.4-18.9c0.9-2.7,0.6-5.7-1.1-8.1c-0.8-1.1-1.9-2-3.2-2.6c-1.2-0.6-2.6-0.9-4-0.8H770l-19.5,68.4
	c-10.7,37.4,27.1,34.6,27.1,34.6S812.1,344.8,823.4,305.2z M800.3,304.4c-1.3,5.4-3.9,10.4-7.7,14.5c-1.4,1.5-3,2.6-4.9,3.4
	c-1.8,0.8-3.8,1.2-5.8,1.1c-3.3,0.4-6.5-1.5-7.8-4.6c-1.3-4.8-0.9-9.9,0.9-14.5c1.2-5.2,3.8-9.9,7.5-13.7c2.8-2.9,6.7-4.6,10.7-4.5
	c3.2-0.3,6.3,1.5,7.6,4.5C802.1,295.2,802,300,800.3,304.4L800.3,304.4z"/>
<path class="st0" d="M452.8,252.6c0.5-1.3,0.6-2.8,0.4-4.2c-0.2-1.4-0.7-2.8-1.5-4c-1.6-2.2-4.2-3.5-6.9-3.4h-12l-24.8,87
	c-3.4,12,2.5,15,8.1,15.5c4,0.3,8.7,0.5,13.3,0.5c3,0,5.9-0.1,8.3-0.2l2.4-0.1l5.3-18.6H435c-2.8,0-2.5-1-2.3-2l10.7-37.6h2.9
	c3.3-0.1,6.4-1.2,9-3.2c2.8-2,4.8-5,5.8-8.3l1.8-6.2h-14.4L452.8,252.6z"/>
<path class="st0" d="M371.4,305.2c3.4-9.3,3.3-19.5-0.3-28.6c-3.6-7.2-11.2-11.6-19.2-11c-4.7-0.1-9.3,0.8-13.6,2.6
	c-2.1,0.9-4,2-5.9,3.4l5.4-18.9c0.9-2.7,0.6-5.7-1.1-8.1c-0.8-1.1-1.9-2-3.1-2.6c-1.2-0.6-2.6-0.9-4-0.8H318l-19.5,68.4
	c-10.7,37.4,27.1,34.6,27.1,34.6S360,344.8,371.4,305.2z M348.3,304.4c-1.3,5.4-3.9,10.4-7.7,14.5c-2.8,2.9-6.7,4.6-10.7,4.5
	c-3.3,0.4-6.5-1.5-7.9-4.6c-1.3-4.8-0.9-9.9,0.9-14.5c1.2-5.2,3.8-9.9,7.5-13.7c2.8-2.9,6.7-4.6,10.7-4.5c3.2-0.3,6.3,1.5,7.6,4.5
	C350.1,295.2,350,300,348.3,304.4L348.3,304.4z"/>
<path class="st1" d="M93.9,271.6c-3.6,8.3,0.3,18,8.6,21.5c2.3,1,4.8,1.4,7.4,1.3h5.8l16.5-57.7H104L93.9,271.6z"/>
<path class="st2" d="M249.7,259c-7.6-15.2-20.9-22.5-39.7-22.5h-35l-16.4,58h24.9c4-0.6,7.9,1.5,9.5,5.2c1.8,5.6,1.6,11.7-0.5,17.3
	c-1.6,6.8-4.9,13.1-9.6,18.3c-3.5,3.7-8.3,5.8-13.4,5.7c-4.2,0.5-8.2-1.9-9.8-5.8c-1.6-6-1.2-12.4,1.1-18.2l30.5-107.6
	c2-5.7,1.2-11.9-2.2-16.9c-3.4-4.7-9-7.3-14.8-7h-33.9l-40.2,141.7c-22,77.5,55.9,71.8,55.9,71.8s70.9,1.6,94.3-80.6
	C257.2,294.2,257,274.2,249.7,259z"/>
<linearGradient id="SVGID_1_" gradientUnits="userSpaceOnUse" x1="232.1495" y1="358.3527" x2="212.6395" y2="326.9027" gradientTransform="matrix(1 0 0 1 -12.24 -63.31)">
	<stop  offset="0" style="stop-color:#D62616;stop-opacity:0"/>
	<stop  offset="1" style="stop-color:#D62616"/>
</linearGradient>
<path class="st3" d="M250.4,318.1c6.9-24,6.7-43.9-0.7-59c-7.6-15.1-20.9-22.3-39.7-22.3h-26.4l-16.4,57.7h16.2
	c4-0.6,7.9,1.5,9.5,5.1c1.8,5.6,1.6,11.6-0.5,17.1"/>
<rect x="71.5" y="157.6" class="st4" width="775.5" height="269.4"/>
</svg>
