<?xml version="1.0" encoding="utf-8"?>
<!-- Generator: Adobe Illustrator 25.1.0, SVG Export Plug-In . SVG Version: 6.00 Build 0)  -->
<svg version="1.1" id="Layer_1" xmlns="http://www.w3.org/2000/svg" xmlns:xlink="http://www.w3.org/1999/xlink" x="0px" y="0px"
	 width="553.7px" height="170.8px" viewBox="0 0 553.7 170.8" style="enable-background:new 0 0 553.7 170.8;" xml:space="preserve"
	>
<style type="text/css">
	.st0{fill:#28ABE3;}
</style>
<g>
	<g id="svg_2">
		<path id="svg_3" class="st0" d="M74.8,24.6c-30.4,0-55.1,24.7-55.1,55.1c0,15.9,6.7,30.2,17.5,40.3c0.7,0.9,1.7,1.4,2.9,1.4
			c1.6,0,2.9-1,3.4-2.4c0,0,0,0,0,0c1.7-3.6,4-6.9,6.8-9.7c6.4-6.4,15.3-10.1,24.4-10.1s18,3.7,24.4,10.1c2.7,2.7,4.9,5.9,6.6,9.2
			c0.2,0.3,0.3,0.6,0.5,1c0,0,0,0,0.1,0c0.6,1.1,1.8,1.8,3.1,1.8c0.9,0,1.6-0.3,2.3-0.8c0,0,0.1,0,0.1,0c11-10.1,18-24.6,18-40.7
			C129.8,49.3,105.2,24.6,74.8,24.6L74.8,24.6z M75.4,96.9C65,96.9,56.5,88.3,56.5,78s8.6-18.9,18.9-18.9S94.3,67.7,94.3,78
			S85.7,96.9,75.4,96.9L75.4,96.9z"/>
		<circle id="svg_4" class="st0" cx="75.3" cy="127.6" r="18.6"/>
	</g>
	<g>
		<path class="st0" d="M157.3,59h24.8c4.9,0,8.6,0.2,11,0.6c2.4,0.4,4.6,1.3,6.5,2.6c1.9,1.3,3.5,3,4.8,5.2c1.3,2.2,1.9,4.6,1.9,7.3
			c0,2.9-0.8,5.6-2.3,8c-1.6,2.4-3.7,4.2-6.4,5.5c3.8,1.1,6.7,3,8.7,5.6c2,2.6,3,5.8,3,9.3c0,2.8-0.7,5.6-2,8.2
			c-1.3,2.7-3.1,4.8-5.4,6.4c-2.3,1.6-5.1,2.6-8.4,2.9c-2.1,0.2-7.1,0.4-15.1,0.4h-21.1V59z M169.8,69.3v14.3h8.2
			c4.9,0,7.9-0.1,9.1-0.2c2.1-0.3,3.8-1,5.1-2.2c1.2-1.2,1.8-2.8,1.8-4.8c0-1.9-0.5-3.5-1.6-4.7c-1.1-1.2-2.6-1.9-4.7-2.2
			c-1.2-0.1-4.8-0.2-10.7-0.2H169.8z M169.8,94v16.6h11.6c4.5,0,7.4-0.1,8.6-0.4c1.9-0.3,3.4-1.2,4.5-2.5c1.2-1.3,1.8-3.1,1.8-5.3
			c0-1.9-0.5-3.4-1.4-4.7c-0.9-1.3-2.2-2.2-3.9-2.8c-1.7-0.6-5.4-0.9-11.1-0.9H169.8z"/>
		<path class="st0" d="M247.1,121v-6.7c-1.6,2.4-3.8,3.3-6.4,4.7c-2.7,1.4-5.5,2.1-8.4,2.1c-3,0-5.7-0.7-8.1-2
			c-2.4-1.3-4.1-3.2-5.2-5.6c-1.1-2.4-1.6-5.7-1.6-9.9V76.1h11.9v20.6c0,6.3,0.2,9.2,0.7,10.6c0.4,1.4,1.2,2.6,2.4,3.4
			c1.2,0.8,2.6,1.2,4.4,1.2c2,0,3.8-0.6,5.5-1.7c1.6-1.1,2.7-2.5,3.3-4.1c0.6-1.6,0.9-4.7,0.9-11.1V76.1h11.9V121H247.1z"/>
		<path class="st0" d="M262.6,76.1h12.6L286,108l10.5-31.9h12.3l-15.9,43.2l-2.8,7.8c-1,2.6-2,4.6-3,6c-0.9,1.4-2,2.5-3.3,3.4
			c-1.2,0.9-2.7,1.5-4.5,2c-1.8,0.5-3.8,0.7-6.1,0.7c-2.3,0-4.5-0.2-6.7-0.7l-1.1-9.3c1.9,0.4,3.5,0.5,5,0.5c2.8,0,4.8-0.8,6.1-2.4
			c1.3-1.6,2.3-3.7,3-6.2L262.6,76.1z"/>
		<path class="st0" d="M314.2,59h12.5v32.6c0,5.3,0.2,8.8,0.5,10.4c0.5,2.5,1.8,4.6,3.8,6.1c2,1.5,4.8,2.3,8.3,2.3
			c3.6,0,6.2-0.7,8-2.2c1.8-1.5,2.9-3.2,3.3-5.3c0.4-2.1,0.5-5.6,0.5-10.5V59h12.5v31.6c0,7.4-0.3,12.7-1,15.8
			c-0.7,3.1-1.9,5.7-3.7,7.8c-1.8,2.1-4.2,3.8-7.3,5.1c-3,1.3-7,1.9-11.9,1.9c-5.9,0-10.4-0.7-13.5-2.1c-3.1-1.4-5.5-3.1-7.2-5.3
			c-1.8-2.2-2.9-4.5-3.5-6.9c-0.8-3.6-1.2-8.8-1.2-15.7V59z"/>
		<path class="st0" d="M413.7,89.4L402,91.5c-0.4-2.3-1.3-4.1-2.7-5.3c-1.4-1.2-3.2-1.8-5.4-1.8c-3,0-5.3,1-7.1,3.1
			c-1.8,2-2.6,4.5-2.6,9.3c0,5.3,0.9,9.1,2.7,11.3c1.8,2.2,4.2,3.3,7.2,3.3c2.3,0,4.1-0.6,5.5-1.9c1.4-1.3,2.5-3.5,3-6.6l11.7,2
			c-1.2,5.4-3.5,9.4-7,12.1c-3.4,2.7-8,4.1-13.8,4.1c-6.6,0-11.8-2.1-15.7-6.2c-3.9-4.1-5.9-9.9-5.9-17.2c0-7.4,2-12.2,5.9-16.3
			c3.9-4.1,9.2-6.2,15.9-6.2c5.5,0,9.8,1.2,13,3.5C410,81,412.3,84.5,413.7,89.4z"/>
		<path class="st0" d="M417.8,96.9c0-3.9,1-6.8,2.9-10.5c1.9-3.7,4.7-6.5,8.3-8.5c3.6-1.9,7.5-2.9,11.9-2.9c6.8,0,12.4,2.2,16.7,6.6
			c4.3,4.4,6.5,9,6.5,15.7c0,6.8-2.2,12.4-6.6,16.9c-4.4,4.5-9.9,6.7-16.6,6.7c-4.1,0-8-0.9-11.8-2.8c-3.7-1.9-6.6-4.6-8.5-8.2
			C418.8,106.4,417.8,102.1,417.8,96.9z M430,97.5c0,4.5,1.1,7.9,3.2,10.2c2.1,2.4,4.7,3.6,7.8,3.6s5.7-1.2,7.8-3.6
			c2.1-2.4,3.1-5.8,3.1-10.3c0-4.4-1.1-6.8-3.1-9.1c-2.1-2.4-4.7-3.6-7.8-3.6s-5.7,1.2-7.8,3.6C431.1,90.7,430,93.1,430,97.5z"/>
		<path class="st0" d="M471.3,70V59h11.9v11H471.3z M471.3,121.2V76.1h11.9v45.1H471.3z"/>
		<path class="st0" d="M534,121h-11.9V98.1c0-4.8-0.3-8-0.8-9.4c-0.5-1.4-1.3-2.5-2.5-3.3c-1.1-0.8-2.5-1.2-4.1-1.2
			c-2.1,0-3.9,0.6-5.5,1.7c-1.6,1.1-2.8,2.6-3.4,4.5c-0.6,1.9-0.9,5.3-0.9,10.3V121h-11.9V76.1h11v6.6c3.9-5.1,8.8-7.6,14.8-7.6
			c2.6,0,5,0.5,7.2,1.4c2.2,0.9,3.8,2.1,4.9,3.6c1.1,1.5,1.9,3.1,2.3,5c0.4,1.9,0.7,4.5,0.7,8V121z"/>
	</g>
</g>
</svg>
