<?xml version="1.0" encoding="utf-8"?>
<!-- Generator: Adobe Illustrator 22.0.0, SVG Export Plug-In . SVG Version: 6.00 Build 0)  -->
<svg version="1.1" id="图层_1" xmlns="http://www.w3.org/2000/svg" xmlns:xlink="http://www.w3.org/1999/xlink" x="0px" y="0px"
	 viewBox="0 0 800 500" style="enable-background:new 0 0 800 500;" xml:space="preserve">
<style type="text/css">
	.st0{fill:#28CD96;}
</style>
<g>
	<g>
		<path class="st0" d="M524.3,250c0-2.6,0-5-0.1-7.2s-0.3-4.3-0.6-6.2s-0.9-3.7-1.7-5.4s-2-3.3-3.5-4.8c-2.1-2.1-4.4-3.7-7-4.8
			c-2.6-1.1-5.6-1.7-9-1.7s-6.4,0.6-9,1.7c-2.6,1.1-5,2.7-7.1,4.8c-1.5,1.5-2.6,3.1-3.4,4.8s-1.4,3.5-1.7,5.4
			c-0.3,1.9-0.5,4-0.6,6.2s-0.1,4.6-0.1,7.2c0,2.6,0,4.9,0.1,7.2c0.1,2.2,0.3,4.3,0.6,6.2c0.3,1.9,0.9,3.7,1.7,5.4
			c0.8,1.7,2,3.3,3.4,4.8c2.1,2.1,4.4,3.7,7.1,4.8c2.6,1.1,5.6,1.7,9,1.7s6.3-0.6,9-1.7c2.6-1.1,5-2.7,7-4.8
			c1.5-1.5,2.6-3.1,3.5-4.8c0.8-1.7,1.4-3.5,1.7-5.4s0.6-4,0.6-6.2C524.3,254.9,524.3,252.6,524.3,250L524.3,250z M512.8,250
			c0,2.8,0,5.2-0.1,7.1c-0.1,1.9-0.2,3.4-0.5,4.6c-0.2,1.2-0.5,2.2-0.9,2.9c-0.4,0.8-0.8,1.5-1.4,2.1c-0.8,1-1.9,1.7-3.1,2.3
			c-1.3,0.6-2.7,0.8-4.3,0.9c-1.6,0-3-0.3-4.3-0.9s-2.3-1.3-3.2-2.3c-0.6-0.6-1-1.3-1.4-2.1c-0.4-0.8-0.7-1.7-0.9-2.9
			c-0.2-1.2-0.4-2.7-0.4-4.6c-0.1-1.9-0.1-4.2-0.1-7.1c0-2.8,0-5.2,0.1-7.1c0.1-1.9,0.2-3.4,0.4-4.6c0.2-1.2,0.5-2.2,0.9-2.9
			c0.4-0.8,0.8-1.5,1.4-2.1c0.8-1,1.9-1.7,3.2-2.3c1.3-0.6,2.7-0.8,4.3-0.9c1.6,0,3,0.3,4.3,0.9c1.2,0.6,2.3,1.3,3.1,2.3
			c0.6,0.6,1,1.3,1.4,2.1s0.7,1.7,0.9,2.9s0.4,2.7,0.5,4.6C512.7,244.8,512.8,247.2,512.8,250z"/>
		<path class="st0" d="M616.5,221.4c0-0.6-0.5-1-1-1H606c-0.6,0-1,0.5-1,1v35.3l-23.3-36c-0.2-0.2-0.3-0.3-0.6-0.3h-8.9
			c-0.5,0-1,0.5-1,1c0,19.1,0,38.2,0,57.2c0,0.6,0.5,1,1,1h9.5c0.6,0,1-0.5,1-1v-35.4l23.3,36.1c0.2,0.2,0.3,0.3,0.6,0.3h8.9
			c0.6,0,1-0.5,1-1V221.4z"/>
		<path class="st0" d="M552.5,221.4c0-0.6-0.5-1-1-1H542c-0.6,0-1,0.5-1,1v57.2c0,0.6,0.5,1,1,1h9.5c0.6,0,1-0.5,1-1V221.4z"/>
		<path class="st0" d="M438.4,250c0-2.8,0-5.2,0.1-7.1c0.1-1.9,0.2-3.4,0.4-4.6c0.9-5.1,4.8-8.1,9.8-8.1c3.3,0,6.2,1.2,8.1,4
			c0.8,1.2,1.4,2.6,1.8,4.2c0,0.2,0.1,0.3,0.3,0.3h11.2c0.2,0,0.2-0.1,0.2-0.3c-1.2-6.9-4.9-13.2-11.5-16.3c-3-1.4-6.5-2.2-10.3-2.2
			c-6.3,0-11.7,2.2-16,6.5c-2.5,2.5-4.1,5.5-4.8,8.9c-0.7,3.3-1,8.2-1,14.7s0.3,11.4,1,14.7c0.7,3.4,2.4,6.4,4.8,8.9
			c4.3,4.3,9.7,6.5,16,6.5c3.8,0,7.2-0.7,10.3-2.2c6.5-3.1,10.3-9.3,11.5-16.3c0-0.2,0-0.3-0.2-0.3h-11.2c-0.2,0-0.3,0.1-0.3,0.3
			c-0.4,1.6-1,3-1.8,4.2c-1.9,2.7-4.8,3.9-8.1,4c-5,0-8.9-3-9.8-8.1c-0.2-1.2-0.4-2.7-0.4-4.6C438.4,255.2,438.4,252.8,438.4,250z"
			/>
		<path class="st0" d="M319.8,221.4c0-0.6-0.5-1-1-1h-9.5c-0.6,0-1,0.5-1,1v57.2c0,0.6,0.5,1,1,1h9.5c0.6,0,1-0.5,1-1v-16.8l7.7-9.2
			l15.7,26.7c0.1,0.2,0.3,0.3,0.6,0.3h11.6c0.5,0,0.6-0.3,0.4-0.8l-20.6-34.9l18.9-22.7c0.4-0.5,0.2-0.9-0.4-0.9H341
			c-0.2,0-0.3,0-0.4,0.2l-20.8,24.9L319.8,221.4L319.8,221.4z"/>
		<path class="st0" d="M389.3,269.8c-5.4,0-10.2-5-10.2-10.9v-37.5c0-0.6-0.5-1-1-1h-9.5c-0.6,0-1,0.5-1,1v37.4
			c0,13.1,9.8,21.4,21.8,21.4s21.8-8.3,21.8-21.4v-37.4c0-0.6-0.5-1-1-1h-9.5c-0.6,0-1,0.5-1,1v37.5
			C399.5,264.8,394.6,269.8,389.3,269.8z"/>
	</g>
	<path class="st0" d="M212.3,250l29.6,29.6l18.7-18.7c3.3-3.3,8.7-3.3,12,0s3.3,8.7,0,12l-24.7,24.7c-3.3,3.3-8.7,3.3-12,0
		L200.4,262v21.2c0,4.6-3.8,8.5-8.5,8.5s-8.5-3.8-8.5-8.5V217c0-4.7,3.8-8.5,8.5-8.5s8.5,3.8,8.5,8.5v21l35.6-35.6
		c3.3-3.3,8.7-3.3,12,0l24.7,24.7c3.3,3.3,3.3,8.7,0,12s-8.7,3.3-12,0L242,220.4L212.3,250L212.3,250z M242,241.5L242,241.5
		c-4.7,0-8.5,3.8-8.5,8.5s3.8,8.5,8.5,8.5s8.5-3.8,8.5-8.5C250.4,245.3,246.6,241.5,242,241.5z"/>
</g>
</svg>
