<svg width="500" height="500" viewBox="0 0 500 500" fill="none" xmlns="http://www.w3.org/2000/svg">
<mask id="mask0_1_3" style="mask-type:luminance" maskUnits="userSpaceOnUse" x="6" y="6" width="488" height="488">
<path d="M6.29688 6.29688H493.297V493.297H6.29688V6.29688Z" fill="white"/>
</mask>
<g mask="url(#mask0_1_3)">
<path d="M493.297 249.797C493.297 253.786 493.203 257.766 493.005 261.745C492.813 265.729 492.516 269.698 492.125 273.667C491.734 277.63 491.25 281.589 490.661 285.526C490.078 289.469 489.396 293.396 488.62 297.302C487.844 301.214 486.969 305.099 486 308.964C485.031 312.828 483.969 316.672 482.813 320.484C481.656 324.297 480.406 328.078 479.063 331.833C477.724 335.583 476.286 339.302 474.766 342.984C473.24 346.667 471.625 350.307 469.922 353.906C468.219 357.51 466.427 361.068 464.547 364.583C462.667 368.099 460.703 371.563 458.656 374.984C456.609 378.401 454.474 381.766 452.26 385.078C450.047 388.396 447.755 391.651 445.38 394.854C443.005 398.052 440.557 401.193 438.026 404.276C435.5 407.354 432.896 410.37 430.219 413.323C427.547 416.276 424.797 419.161 421.979 421.979C419.161 424.797 416.276 427.547 413.323 430.219C410.37 432.896 407.354 435.5 404.276 438.026C401.193 440.557 398.052 443.005 394.854 445.38C391.651 447.755 388.396 450.047 385.078 452.26C381.766 454.474 378.401 456.609 374.984 458.656C371.563 460.703 368.099 462.667 364.583 464.547C361.068 466.427 357.51 468.219 353.906 469.922C350.307 471.625 346.661 473.24 342.984 474.766C339.302 476.286 335.583 477.724 331.833 479.063C328.078 480.406 324.297 481.656 320.484 482.813C316.672 483.969 312.828 485.031 308.964 486C305.099 486.969 301.214 487.844 297.302 488.62C293.396 489.396 289.469 490.078 285.526 490.661C281.583 491.25 277.63 491.734 273.667 492.125C269.698 492.516 265.729 492.813 261.745 493.005C257.766 493.203 253.786 493.297 249.797 493.297C245.813 493.297 241.833 493.203 237.849 493.005C233.87 492.813 229.896 492.516 225.932 492.125C221.964 491.734 218.01 491.25 214.068 490.661C210.13 490.078 206.203 489.396 202.297 488.62C198.385 487.844 194.5 486.969 190.635 486C186.766 485.031 182.927 483.969 179.115 482.813C175.302 481.656 171.521 480.406 167.766 479.063C164.016 477.724 160.297 476.286 156.615 474.766C152.932 473.24 149.292 471.625 145.688 469.922C142.089 468.219 138.526 466.427 135.016 464.547C131.5 462.667 128.031 460.703 124.615 458.656C121.198 456.609 117.833 454.474 114.516 452.26C111.203 450.047 107.948 447.755 104.745 445.38C101.547 443.005 98.4063 440.557 95.3229 438.026C92.2448 435.5 89.2292 432.896 86.276 430.219C83.3229 427.547 80.4375 424.797 77.6198 421.979C74.8021 419.161 72.0521 416.276 69.375 413.323C66.7031 410.37 64.099 407.354 61.5729 404.276C59.0417 401.193 56.5938 398.052 54.2188 394.854C51.8438 391.651 49.5521 388.396 47.3385 385.078C45.1198 381.766 42.9896 378.401 40.9427 374.984C38.8958 371.563 36.9323 368.099 35.0521 364.583C33.1719 361.068 31.3802 357.51 29.6771 353.906C27.974 350.307 26.3594 346.667 24.8333 342.984C23.3073 339.302 21.875 335.583 20.5313 331.833C19.1927 328.078 17.9427 324.297 16.7865 320.484C15.625 316.672 14.5625 312.828 13.599 308.964C12.6302 305.099 11.7552 301.214 10.9792 297.302C10.1979 293.396 9.52083 289.469 8.93229 285.526C8.34896 281.583 7.86458 277.63 7.47396 273.667C7.08333 269.698 6.78646 265.729 6.59375 261.745C6.39583 257.766 6.29688 253.786 6.29688 249.797C6.29688 245.813 6.39583 241.833 6.59375 237.849C6.78646 233.87 7.08333 229.896 7.47396 225.932C7.86458 221.964 8.34896 218.01 8.93229 214.068C9.52083 210.13 10.1979 206.203 10.9792 202.297C11.7552 198.385 12.6302 194.5 13.599 190.635C14.5625 186.766 15.625 182.927 16.7865 179.115C17.9427 175.302 19.1927 171.521 20.5313 167.766C21.875 164.016 23.3073 160.297 24.8333 156.615C26.3594 152.932 27.974 149.292 29.6771 145.688C31.3802 142.089 33.1719 138.526 35.0521 135.016C36.9323 131.5 38.8958 128.031 40.9427 124.615C42.9896 121.198 45.1198 117.833 47.3385 114.516C49.5521 111.203 51.8438 107.948 54.2188 104.745C56.5938 101.547 59.0417 98.4063 61.5729 95.3229C64.099 92.2448 66.7031 89.2292 69.375 86.276C72.0521 83.3229 74.8021 80.4375 77.6198 77.6198C80.4375 74.8021 83.3229 72.0521 86.276 69.375C89.2292 66.7031 92.2448 64.099 95.3229 61.5729C98.4063 59.0417 101.547 56.5938 104.745 54.2188C107.948 51.8438 111.203 49.5521 114.516 47.3385C117.833 45.1198 121.198 42.9896 124.615 40.9427C128.031 38.8958 131.5 36.9323 135.016 35.0521C138.526 33.1719 142.089 31.3802 145.688 29.6771C149.292 27.974 152.932 26.3594 156.615 24.8333C160.297 23.3073 164.016 21.875 167.766 20.5313C171.521 19.1927 175.302 17.9427 179.115 16.7865C182.927 15.625 186.766 14.5625 190.635 13.599C194.5 12.6302 198.385 11.7552 202.297 10.9792C206.203 10.1979 210.13 9.52083 214.068 8.93229C218.01 8.34896 221.964 7.86458 225.932 7.47396C229.896 7.08333 233.87 6.78646 237.849 6.59375C241.833 6.39583 245.813 6.29688 249.797 6.29688C253.786 6.29688 257.766 6.39583 261.745 6.59375C265.729 6.78646 269.698 7.08333 273.667 7.47396C277.63 7.86458 281.583 8.34896 285.526 8.93229C289.469 9.52083 293.396 10.1979 297.302 10.9792C301.214 11.7552 305.099 12.6302 308.964 13.599C312.828 14.5625 316.672 15.625 320.484 16.7865C324.297 17.9427 328.078 19.1927 331.833 20.5313C335.583 21.875 339.302 23.3073 342.984 24.8333C346.667 26.3594 350.307 27.974 353.906 29.6771C357.51 31.3802 361.068 33.1719 364.583 35.0521C368.099 36.9323 371.563 38.8958 374.984 40.9427C378.401 42.9896 381.766 45.1198 385.078 47.3385C388.396 49.5521 391.651 51.8438 394.854 54.2188C398.052 56.5938 401.193 59.0417 404.276 61.5729C407.354 64.099 410.37 66.7031 413.323 69.375C416.276 72.0521 419.161 74.8021 421.979 77.6198C424.797 80.4375 427.547 83.3229 430.219 86.276C432.896 89.2292 435.5 92.2448 438.026 95.3229C440.557 98.4063 443.005 101.547 445.38 104.745C447.755 107.948 450.047 111.203 452.26 114.516C454.474 117.833 456.609 121.198 458.656 124.615C460.703 128.031 462.667 131.5 464.547 135.016C466.427 138.526 468.219 142.089 469.922 145.688C471.625 149.292 473.24 152.932 474.766 156.615C476.286 160.297 477.724 164.016 479.063 167.766C480.406 171.521 481.656 175.302 482.813 179.115C483.969 182.927 485.031 186.766 486 190.635C486.969 194.5 487.844 198.385 488.62 202.297C489.396 206.203 490.078 210.13 490.661 214.068C491.25 218.01 491.734 221.964 492.125 225.932C492.516 229.896 492.813 233.87 493.005 237.849C493.203 241.833 493.297 245.813 493.297 249.797Z" fill="#38B6FF"/>
</g>
<mask id="mask1_1_3" style="mask-type:luminance" maskUnits="userSpaceOnUse" x="162" y="110" width="184" height="202">
<path d="M162.667 110.667H345.333V312H162.667V110.667Z" fill="white"/>
</mask>
<g mask="url(#mask1_1_3)">
<mask id="mask2_1_3" style="mask-type:luminance" maskUnits="userSpaceOnUse" x="69" y="52" width="362" height="396">
<path d="M259.323 52.6406L430.333 169.281L240.443 447.688L69.4323 331.052L259.323 52.6406Z" fill="white"/>
</mask>
<g mask="url(#mask2_1_3)">
<mask id="mask3_1_3" style="mask-type:luminance" maskUnits="userSpaceOnUse" x="69" y="52" width="362" height="396">
<path d="M259.323 52.6406L430.333 169.281L240.443 447.688L69.4323 331.052L259.323 52.6406Z" fill="white"/>
</mask>
<g mask="url(#mask3_1_3)">
<mask id="mask4_1_3" style="mask-type:luminance" maskUnits="userSpaceOnUse" x="69" y="52" width="362" height="396">
<path d="M259.323 52.6406L430.333 169.281L240.443 447.688L69.4323 331.052L259.323 52.6406Z" fill="white"/>
</mask>
<g mask="url(#mask4_1_3)">
<path d="M162.75 194.521L213.646 303.24L333.443 310.943L344.797 110.948L162.75 194.521Z" fill="white"/>
</g>
</g>
</g>
</g>
<mask id="mask5_1_3" style="mask-type:luminance" maskUnits="userSpaceOnUse" x="150" y="210" width="173" height="181">
<path d="M150.667 210.667H322.667V390.667H150.667V210.667Z" fill="white"/>
</mask>
<g mask="url(#mask5_1_3)">
<mask id="mask6_1_3" style="mask-type:luminance" maskUnits="userSpaceOnUse" x="69" y="52" width="362" height="396">
<path d="M259.323 52.6406L430.333 169.281L240.443 447.688L69.4323 331.052L259.323 52.6406Z" fill="white"/>
</mask>
<g mask="url(#mask6_1_3)">
<mask id="mask7_1_3" style="mask-type:luminance" maskUnits="userSpaceOnUse" x="69" y="52" width="362" height="396">
<path d="M259.323 52.6406L430.333 169.281L240.443 447.688L69.4323 331.052L259.323 52.6406Z" fill="white"/>
</mask>
<g mask="url(#mask7_1_3)">
<mask id="mask8_1_3" style="mask-type:luminance" maskUnits="userSpaceOnUse" x="69" y="52" width="362" height="396">
<path d="M259.323 52.6406L430.333 169.281L240.443 447.688L69.4323 331.052L259.323 52.6406Z" fill="white"/>
</mask>
<g mask="url(#mask8_1_3)">
<path d="M322.443 327.182L202.609 319.422V319.417L151.698 210.724L154.917 389.344L154.911 389.349L322.443 327.182Z" fill="white"/>
</g>
</g>
</g>
</g>
<mask id="mask9_1_3" style="mask-type:luminance" maskUnits="userSpaceOnUse" x="180" y="130" width="152" height="168">
<path d="M180 130.667H332V297.333H180V130.667Z" fill="white"/>
</mask>
<g mask="url(#mask9_1_3)">
<mask id="mask10_1_3" style="mask-type:luminance" maskUnits="userSpaceOnUse" x="180" y="83" width="220" height="215">
<path d="M263.318 83.8854L399.016 179.495L316.078 297.208L180.375 201.599L263.318 83.8854Z" fill="white"/>
</mask>
<g mask="url(#mask10_1_3)">
<mask id="mask11_1_3" style="mask-type:luminance" maskUnits="userSpaceOnUse" x="180" y="83" width="220" height="215">
<path d="M263.318 83.8854L399.016 179.495L316.078 297.208L180.375 201.599L263.318 83.8854Z" fill="white"/>
</mask>
<g mask="url(#mask11_1_3)">
<mask id="mask12_1_3" style="mask-type:luminance" maskUnits="userSpaceOnUse" x="180" y="83" width="220" height="215">
<path d="M263.318 83.8854L399.016 179.495L316.078 297.208L180.375 201.599L263.318 83.8854Z" fill="white"/>
</mask>
<g mask="url(#mask12_1_3)">
<path d="M316.089 297.193L180.385 201.583L331.156 131.703L316.089 297.193ZM189.203 202.385L312.365 289.161L326.042 138.964L189.203 202.385Z" fill="#38B6FF"/>
</g>
</g>
</g>
</g>
</svg>
