<svg xmlns="http://www.w3.org/2000/svg" xmlns:xlink="http://www.w3.org/1999/xlink" width="500" zoomAndPan="magnify" viewBox="0 0 375 374.999991" height="500" preserveAspectRatio="xMidYMid meet" version="1.0"><defs><clipPath id="d2b29723a6"><path d="M 4.722656 4.722656 L 369.972656 4.722656 L 369.972656 369.972656 L 4.722656 369.972656 Z M 4.722656 4.722656 " clip-rule="nonzero"/></clipPath><clipPath id="9a35e157e6"><path d="M 122 83 L 259 83 L 259 234 L 122 234 Z M 122 83 " clip-rule="nonzero"/></clipPath><clipPath id="a9f0556f46"><path d="M 194.492188 39.480469 L 322.75 126.960938 L 180.332031 335.765625 L 52.074219 248.289062 Z M 194.492188 39.480469 " clip-rule="nonzero"/></clipPath><clipPath id="b500e2bf2a"><path d="M 194.492188 39.480469 L 322.75 126.960938 L 180.332031 335.765625 L 52.074219 248.289062 Z M 194.492188 39.480469 " clip-rule="nonzero"/></clipPath><clipPath id="8569efd2fb"><path d="M 113 158 L 242 158 L 242 293 L 113 293 Z M 113 158 " clip-rule="nonzero"/></clipPath><clipPath id="f337a2a8ac"><path d="M 194.492188 39.480469 L 322.75 126.960938 L 180.332031 335.765625 L 52.074219 248.289062 Z M 194.492188 39.480469 " clip-rule="nonzero"/></clipPath><clipPath id="ea0fe03856"><path d="M 194.492188 39.480469 L 322.75 126.960938 L 180.332031 335.765625 L 52.074219 248.289062 Z M 194.492188 39.480469 " clip-rule="nonzero"/></clipPath><clipPath id="9c0a1cdd08"><path d="M 122 83 L 259 83 L 259 234 L 122 234 Z M 122 83 " clip-rule="nonzero"/></clipPath><clipPath id="182727c7cf"><path d="M 194.492188 39.480469 L 322.75 126.960938 L 180.332031 335.765625 L 52.074219 248.289062 Z M 194.492188 39.480469 " clip-rule="nonzero"/></clipPath><clipPath id="60a55e4263"><path d="M 194.492188 39.480469 L 322.75 126.960938 L 180.332031 335.765625 L 52.074219 248.289062 Z M 194.492188 39.480469 " clip-rule="nonzero"/></clipPath><clipPath id="c6c060a01a"><path d="M 113 158 L 242 158 L 242 293 L 113 293 Z M 113 158 " clip-rule="nonzero"/></clipPath><clipPath id="52b2954a21"><path d="M 194.492188 39.480469 L 322.75 126.960938 L 180.332031 335.765625 L 52.074219 248.289062 Z M 194.492188 39.480469 " clip-rule="nonzero"/></clipPath><clipPath id="3e613f333e"><path d="M 194.492188 39.480469 L 322.75 126.960938 L 180.332031 335.765625 L 52.074219 248.289062 Z M 194.492188 39.480469 " clip-rule="nonzero"/></clipPath><clipPath id="e711e6de3a"><path d="M 135 98 L 249 98 L 249 223 L 135 223 Z M 135 98 " clip-rule="nonzero"/></clipPath><clipPath id="4bcaae8ad0"><path d="M 197.488281 62.914062 L 299.261719 134.621094 L 237.058594 222.90625 L 135.28125 151.199219 Z M 197.488281 62.914062 " clip-rule="nonzero"/></clipPath><clipPath id="f5d40e3c3e"><path d="M 197.488281 62.914062 L 299.261719 134.621094 L 237.058594 222.90625 L 135.28125 151.199219 Z M 197.488281 62.914062 " clip-rule="nonzero"/></clipPath><clipPath id="a595485d26"><path d="M 185 119 L 239 119 L 239 180 L 185 180 Z M 185 119 " clip-rule="nonzero"/></clipPath><clipPath id="c1d5da1131"><path d="M 217.214844 107.941406 L 249.871094 131.894531 L 206.847656 190.558594 L 174.191406 166.605469 Z M 217.214844 107.941406 " clip-rule="nonzero"/></clipPath><clipPath id="93b1fd8a2c"><path d="M 217.214844 107.941406 L 249.871094 131.894531 L 206.847656 190.558594 L 174.191406 166.605469 Z M 217.214844 107.941406 " clip-rule="nonzero"/></clipPath></defs><g clip-path="url(#d2b29723a6)"><path fill="#008080" d="M 369.972656 187.347656 C 369.972656 190.339844 369.902344 193.324219 369.753906 196.308594 C 369.609375 199.296875 369.386719 202.273438 369.09375 205.25 C 368.800781 208.222656 368.4375 211.191406 367.996094 214.144531 C 367.558594 217.101562 367.046875 220.046875 366.464844 222.976562 C 365.882812 225.910156 365.226562 228.824219 364.5 231.722656 C 363.773438 234.621094 362.976562 237.503906 362.109375 240.363281 C 361.242188 243.222656 360.304688 246.058594 359.296875 248.875 C 358.292969 251.6875 357.214844 254.476562 356.074219 257.238281 C 354.929688 260 353.71875 262.730469 352.441406 265.429688 C 351.164062 268.132812 349.820312 270.800781 348.410156 273.4375 C 347 276.074219 345.527344 278.671875 343.992188 281.238281 C 342.457031 283.800781 340.855469 286.324219 339.195312 288.808594 C 337.535156 291.296875 335.816406 293.738281 334.035156 296.140625 C 332.253906 298.539062 330.417969 300.894531 328.519531 303.207031 C 326.625 305.515625 324.671875 307.777344 322.664062 309.992188 C 320.660156 312.207031 318.597656 314.371094 316.484375 316.484375 C 314.371094 318.597656 312.207031 320.660156 309.992188 322.664062 C 307.777344 324.671875 305.515625 326.625 303.207031 328.519531 C 300.894531 330.417969 298.539062 332.253906 296.140625 334.035156 C 293.738281 335.816406 291.296875 337.535156 288.808594 339.195312 C 286.324219 340.855469 283.800781 342.457031 281.238281 343.992188 C 278.671875 345.527344 276.074219 347 273.4375 348.410156 C 270.800781 349.820312 268.132812 351.164062 265.429688 352.441406 C 262.730469 353.71875 259.996094 354.929688 257.238281 356.074219 C 254.476562 357.214844 251.6875 358.292969 248.875 359.296875 C 246.058594 360.304688 243.222656 361.242188 240.363281 362.109375 C 237.503906 362.976562 234.621094 363.773438 231.722656 364.5 C 228.824219 365.226562 225.910156 365.882812 222.976562 366.464844 C 220.046875 367.046875 217.101562 367.558594 214.144531 367.996094 C 211.1875 368.4375 208.222656 368.800781 205.25 369.09375 C 202.273438 369.386719 199.296875 369.609375 196.308594 369.753906 C 193.324219 369.902344 190.339844 369.972656 187.347656 369.972656 C 184.359375 369.972656 181.375 369.902344 178.386719 369.753906 C 175.402344 369.609375 172.421875 369.386719 169.449219 369.09375 C 166.472656 368.800781 163.507812 368.4375 160.550781 367.996094 C 157.597656 367.558594 154.652344 367.046875 151.722656 366.464844 C 148.789062 365.882812 145.875 365.226562 142.976562 364.5 C 140.074219 363.773438 137.195312 362.976562 134.335938 362.109375 C 131.476562 361.242188 128.640625 360.304688 125.824219 359.296875 C 123.011719 358.292969 120.222656 357.214844 117.460938 356.074219 C 114.699219 354.929688 111.96875 353.71875 109.265625 352.441406 C 106.566406 351.164062 103.894531 349.820312 101.261719 348.410156 C 98.625 347 96.023438 345.527344 93.460938 343.992188 C 90.898438 342.457031 88.375 340.855469 85.886719 339.195312 C 83.402344 337.535156 80.960938 335.816406 78.558594 334.035156 C 76.160156 332.253906 73.804688 330.417969 71.492188 328.519531 C 69.183594 326.625 66.921875 324.671875 64.707031 322.664062 C 62.492188 320.660156 60.328125 318.597656 58.214844 316.484375 C 56.101562 314.371094 54.039062 312.207031 52.03125 309.992188 C 50.027344 307.777344 48.074219 305.515625 46.179688 303.207031 C 44.28125 300.894531 42.445312 298.539062 40.664062 296.140625 C 38.882812 293.738281 37.164062 291.296875 35.503906 288.808594 C 33.839844 286.324219 32.242188 283.800781 30.707031 281.238281 C 29.171875 278.671875 27.699219 276.074219 26.289062 273.4375 C 24.878906 270.800781 23.535156 268.132812 22.257812 265.429688 C 20.980469 262.730469 19.769531 260 18.625 257.238281 C 17.480469 254.476562 16.40625 251.6875 15.398438 248.875 C 14.394531 246.058594 13.457031 243.222656 12.589844 240.363281 C 11.71875 237.503906 10.921875 234.621094 10.199219 231.722656 C 9.472656 228.824219 8.816406 225.910156 8.234375 222.976562 C 7.648438 220.046875 7.140625 217.101562 6.699219 214.144531 C 6.261719 211.1875 5.898438 208.222656 5.605469 205.25 C 5.3125 202.273438 5.089844 199.296875 4.945312 196.308594 C 4.796875 193.324219 4.722656 190.339844 4.722656 187.347656 C 4.722656 184.359375 4.796875 181.375 4.945312 178.386719 C 5.089844 175.402344 5.3125 172.421875 5.605469 169.449219 C 5.898438 166.472656 6.261719 163.507812 6.699219 160.550781 C 7.140625 157.597656 7.648438 154.652344 8.234375 151.722656 C 8.816406 148.789062 9.472656 145.875 10.199219 142.976562 C 10.921875 140.074219 11.71875 137.195312 12.589844 134.335938 C 13.457031 131.476562 14.394531 128.640625 15.398438 125.824219 C 16.40625 123.011719 17.480469 120.222656 18.625 117.460938 C 19.769531 114.699219 20.980469 111.96875 22.257812 109.265625 C 23.535156 106.566406 24.878906 103.894531 26.289062 101.261719 C 27.699219 98.625 29.171875 96.023438 30.707031 93.460938 C 32.242188 90.898438 33.839844 88.375 35.503906 85.886719 C 37.164062 83.402344 38.882812 80.960938 40.664062 78.558594 C 42.445312 76.160156 44.28125 73.804688 46.179688 71.492188 C 48.074219 69.183594 50.027344 66.921875 52.03125 64.707031 C 54.039062 62.492188 56.101562 60.328125 58.214844 58.214844 C 60.328125 56.101562 62.492188 54.039062 64.707031 52.03125 C 66.921875 50.027344 69.183594 48.074219 71.492188 46.179688 C 73.804688 44.28125 76.160156 42.445312 78.558594 40.664062 C 80.960938 38.882812 83.402344 37.164062 85.886719 35.503906 C 88.375 33.839844 90.898438 32.242188 93.460938 30.707031 C 96.023438 29.171875 98.625 27.699219 101.261719 26.289062 C 103.894531 24.878906 106.566406 23.535156 109.265625 22.257812 C 111.96875 20.980469 114.699219 19.769531 117.460938 18.625 C 120.222656 17.480469 123.011719 16.40625 125.824219 15.398438 C 128.640625 14.394531 131.476562 13.457031 134.335938 12.589844 C 137.195312 11.71875 140.074219 10.921875 142.976562 10.199219 C 145.875 9.472656 148.789062 8.816406 151.722656 8.234375 C 154.652344 7.648438 157.597656 7.140625 160.550781 6.699219 C 163.507812 6.261719 166.472656 5.898438 169.449219 5.605469 C 172.421875 5.3125 175.402344 5.089844 178.386719 4.945312 C 181.375 4.796875 184.359375 4.722656 187.347656 4.722656 C 190.339844 4.722656 193.324219 4.796875 196.308594 4.945312 C 199.296875 5.089844 202.273438 5.3125 205.25 5.605469 C 208.222656 5.898438 211.1875 6.261719 214.144531 6.699219 C 217.101562 7.140625 220.046875 7.648438 222.976562 8.234375 C 225.910156 8.816406 228.824219 9.472656 231.722656 10.199219 C 234.621094 10.921875 237.503906 11.71875 240.363281 12.589844 C 243.222656 13.457031 246.058594 14.394531 248.875 15.398438 C 251.6875 16.40625 254.476562 17.480469 257.238281 18.625 C 260 19.769531 262.730469 20.980469 265.429688 22.257812 C 268.132812 23.535156 270.800781 24.878906 273.4375 26.289062 C 276.074219 27.699219 278.671875 29.171875 281.238281 30.707031 C 283.800781 32.242188 286.324219 33.839844 288.808594 35.503906 C 291.296875 37.164062 293.738281 38.882812 296.140625 40.664062 C 298.539062 42.445312 300.894531 44.28125 303.207031 46.179688 C 305.515625 48.074219 307.777344 50.027344 309.992188 52.03125 C 312.207031 54.039062 314.371094 56.101562 316.484375 58.214844 C 318.597656 60.328125 320.660156 62.492188 322.664062 64.707031 C 324.671875 66.921875 326.625 69.183594 328.519531 71.492188 C 330.417969 73.804688 332.253906 76.160156 334.035156 78.558594 C 335.816406 80.960938 337.535156 83.402344 339.195312 85.886719 C 340.855469 88.375 342.457031 90.898438 343.992188 93.460938 C 345.527344 96.023438 347 98.625 348.410156 101.261719 C 349.820312 103.894531 351.164062 106.566406 352.441406 109.265625 C 353.71875 111.96875 354.929688 114.699219 356.074219 117.460938 C 357.214844 120.222656 358.292969 123.011719 359.296875 125.824219 C 360.304688 128.640625 361.242188 131.476562 362.109375 134.335938 C 362.976562 137.195312 363.773438 140.074219 364.5 142.976562 C 365.226562 145.875 365.882812 148.789062 366.464844 151.722656 C 367.046875 154.652344 367.558594 157.597656 367.996094 160.550781 C 368.4375 163.507812 368.800781 166.472656 369.09375 169.449219 C 369.386719 172.421875 369.609375 175.402344 369.753906 178.386719 C 369.902344 181.375 369.972656 184.359375 369.972656 187.347656 Z M 369.972656 187.347656 " fill-opacity="1" fill-rule="nonzero"/></g><g clip-path="url(#9a35e157e6)"><g clip-path="url(#a9f0556f46)"><g clip-path="url(#b500e2bf2a)"><path fill="#ffffff" d="M 122.0625 145.890625 L 160.234375 227.429688 L 250.082031 233.207031 L 258.597656 83.210938 L 258.601562 83.210938 L 258.597656 83.210938 L 122.0625 145.890625 " fill-opacity="1" fill-rule="nonzero"/></g></g></g><g clip-path="url(#8569efd2fb)"><g clip-path="url(#f337a2a8ac)"><g clip-path="url(#ea0fe03856)"><path fill="#ffffff" d="M 241.832031 245.386719 L 151.957031 239.566406 L 151.957031 239.5625 L 113.773438 158.042969 L 116.1875 292.007812 L 116.183594 292.011719 L 241.832031 245.386719 " fill-opacity="1" fill-rule="nonzero"/></g></g></g><g clip-path="url(#9c0a1cdd08)"><g clip-path="url(#182727c7cf)"><g clip-path="url(#60a55e4263)"><path fill="#ffffff" d="M 122.0625 145.890625 L 160.234375 227.429688 L 250.082031 233.207031 L 258.597656 83.210938 L 258.601562 83.210938 L 258.597656 83.210938 L 122.0625 145.890625 " fill-opacity="1" fill-rule="nonzero"/></g></g></g><g clip-path="url(#c6c060a01a)"><g clip-path="url(#52b2954a21)"><g clip-path="url(#3e613f333e)"><path fill="#ffffff" d="M 241.832031 245.386719 L 151.957031 239.566406 L 151.957031 239.5625 L 113.773438 158.042969 L 116.1875 292.007812 L 116.183594 292.011719 L 241.832031 245.386719 " fill-opacity="1" fill-rule="nonzero"/></g></g></g><g clip-path="url(#e711e6de3a)"><g clip-path="url(#4bcaae8ad0)"><g clip-path="url(#f5d40e3c3e)"><path fill="#008080" d="M 237.066406 222.894531 L 135.289062 151.1875 L 248.367188 98.777344 Z M 141.902344 151.789062 L 234.273438 216.871094 L 244.53125 104.222656 Z M 141.902344 151.789062 " fill-opacity="1" fill-rule="nonzero"/></g></g></g><g clip-path="url(#a595485d26)"><g clip-path="url(#c1d5da1131)"><g clip-path="url(#93b1fd8a2c)"><path fill="#008080" d="M 221.800781 169.46875 C 230.96875 156.964844 207.308594 140.871094 212.847656 133.324219 C 215.523438 129.667969 220.332031 130.449219 224.386719 133.425781 C 231.210938 138.425781 229.210938 143.699219 232.300781 145.964844 C 234.488281 147.570312 236.550781 146.964844 237.683594 145.421875 C 240.3125 141.835938 236.863281 135.128906 232.335938 130.363281 L 234.875 126.902344 C 236.460938 124.742188 235.996094 121.710938 233.835938 120.125 C 231.671875 118.535156 228.636719 119.003906 227.054688 121.164062 L 224.425781 124.75 C 217.789062 121.871094 210.003906 122.226562 205.289062 128.652344 C 196.480469 140.660156 219.894531 157.085938 213.707031 165.519531 C 211.566406 168.441406 206.257812 169.042969 201.058594 165.230469 C 193.265625 159.515625 194.535156 152.335938 191.367188 150.015625 C 189.828125 148.882812 187.496094 149.167969 186.0625 151.125 C 183.785156 154.230469 186.25 161.789062 192.648438 168.085938 L 192.625 168.109375 L 189.761719 172.011719 C 188.175781 174.175781 188.644531 177.210938 190.804688 178.796875 C 192.964844 180.382812 196 179.914062 197.585938 177.753906 L 200.449219 173.847656 C 200.484375 173.800781 200.488281 173.75 200.515625 173.707031 C 207.839844 177.230469 216.296875 176.972656 221.800781 169.46875 Z M 221.800781 169.46875 " fill-opacity="1" fill-rule="nonzero"/></g></g></g></svg>